<svg width="12" height="12" viewBox="0 0 12 12" fill="none" xmlns="http://www.w3.org/2000/svg">
<g clip-path="url(#clip0_37_78)">
<path fill-rule="evenodd" clip-rule="evenodd" d="M2.325 8.4C2.35993 8.35343 2.40522 8.31563 2.45729 8.28959C2.50937 8.26355 2.56678 8.25 2.625 8.25H4.5C4.59946 8.25 4.69484 8.28951 4.76516 8.35983C4.83549 8.43016 4.875 8.52554 4.875 8.625C4.875 8.72446 4.83549 8.81984 4.76516 8.89017C4.69484 8.96049 4.59946 9 4.5 9H2.8125L1.125 11.25H10.875L9.1875 9H7.5C7.40054 9 7.30516 8.96049 7.23483 8.89017C7.16451 8.81984 7.125 8.72446 7.125 8.625C7.125 8.52554 7.16451 8.43016 7.23483 8.35983C7.30516 8.28951 7.40054 8.25 7.5 8.25H9.375C9.43322 8.25 9.49063 8.26355 9.54271 8.28959C9.59478 8.31563 9.64007 8.35343 9.675 8.4L11.925 11.4C11.9668 11.4557 11.9922 11.522 11.9985 11.5913C12.0047 11.6607 11.9916 11.7304 11.9604 11.7927C11.9293 11.855 11.8814 11.9074 11.8221 11.944C11.7629 11.9806 11.6946 12 11.625 12H0.375C0.305358 12 0.237092 11.9806 0.177851 11.944C0.11861 11.9074 0.0707348 11.855 0.03959 11.7927C0.00844514 11.7304 -0.0047388 11.6607 0.00151543 11.5913C0.00776967 11.522 0.033215 11.4557 0.0750002 11.4L2.325 8.4Z" fill="#EE1C35"/>
<path fill-rule="evenodd" clip-rule="evenodd" d="M3 3.00003C3.00005 2.4227 3.16669 1.85764 3.47992 1.37267C3.79315 0.887698 4.23966 0.503406 4.76588 0.265907C5.2921 0.0284083 5.87567 -0.0522086 6.44656 0.0337297C7.01746 0.119668 7.55144 0.368511 7.98442 0.750399C8.4174 1.13229 8.73099 1.631 8.88757 2.18669C9.04414 2.74239 9.03705 3.33146 8.86714 3.88322C8.69723 4.43498 8.37172 4.92599 7.92967 5.29735C7.48762 5.6687 6.9478 5.90461 6.375 5.97678V10.125C6.375 10.2245 6.33549 10.3199 6.26517 10.3902C6.19484 10.4605 6.09946 10.5 6 10.5C5.90054 10.5 5.80516 10.4605 5.73484 10.3902C5.66451 10.3199 5.625 10.2245 5.625 10.125V5.97753C4.89972 5.88615 4.23277 5.5331 3.74941 4.9847C3.26606 4.4363 2.99957 3.73104 3 3.00003Z" fill="#EE1C35"/>
</g>
<defs>
<clipPath id="clip0_37_78">
<rect width="12" height="12" fill="white"/>
</clipPath>
</defs>
</svg>
