<svg width="24" height="24" viewBox="0 0 24 24" fill="none" xmlns="http://www.w3.org/2000/svg">
<g clip-path="url(#clip0_1_24)">
<path d="M14.121 10.48C13.9335 10.2925 13.6792 10.1872 13.414 10.1872C13.1488 10.1872 12.8945 10.2925 12.707 10.48L12 11.186C11.8155 11.377 11.5948 11.5294 11.3508 11.6342C11.1068 11.739 10.8444 11.7942 10.5788 11.7965C10.3132 11.7988 10.0499 11.7482 9.80409 11.6476C9.5583 11.5471 9.335 11.3986 9.14721 11.2108C8.95942 11.023 8.81092 10.7997 8.71036 10.5539C8.60979 10.3081 8.55919 10.0448 8.5615 9.7792C8.56381 9.51364 8.61898 9.2512 8.7238 9.00719C8.82861 8.76319 8.98098 8.5425 9.172 8.358L14.802 2.726C16.1349 2.42283 17.5295 2.5476 18.7874 3.08258C20.0454 3.61755 21.1026 4.5355 21.8089 5.7059C22.5151 6.87629 22.8344 8.23955 22.7213 9.60183C22.6082 10.9641 22.0686 12.2561 21.179 13.294L19.071 15.429L14.121 10.479V10.48ZM3.161 4.468C4.19576 3.43338 5.54922 2.77798 7.00256 2.60777C8.4559 2.43756 9.92418 2.76248 11.17 3.53L7.757 6.944C7.0178 7.68173 6.59643 8.6793 6.58294 9.72356C6.56944 10.7678 6.96489 11.776 7.68478 12.5325C8.40467 13.2891 9.39191 13.7342 10.4356 13.7725C11.4792 13.8109 12.4965 13.4396 13.27 12.738L13.414 12.601L17.657 16.843L13.414 21.086C13.0389 21.4609 12.5303 21.6716 12 21.6716C11.4697 21.6716 10.9611 21.4609 10.586 21.086L3.16 13.66C1.94113 12.441 1.25639 10.7878 1.25639 9.064C1.25639 7.34019 1.94113 5.68697 3.16 4.468H3.161Z" fill="#EA0774"/>
</g>
<defs>
<clipPath id="clip0_1_24">
<rect width="24" height="24" fill="white"/>
</clipPath>
</defs>
</svg>
